<svg viewBox="0 0 68.0164 66" x="0" y="0" fill="none" xmlns="http://www.w3.org/2000/svg"><path id="Vector_5" d="M66.7687,8.19c-2.39,1.31 -4.961,2.19 -7.659,2.59c2.755,-2.03 4.867,-5.25 5.863,-9.08c-2.577,1.88 -5.429,3.25 -8.468,3.98c-2.432,-3.19 -5.898,-5.18 -9.734,-5.18c-7.363,0 -13.334,7.35 -13.334,16.41c0,1.28 0.118,2.54 0.346,3.74c-11.084,-0.69 -20.911,-7.22 -27.488,-17.15c-1.148,2.43 -1.805,5.24 -1.805,8.25c0,5.7 2.354,10.72 5.932,13.66c-2.185,-0.08 -4.242,-0.82 -6.04,-2.05c-0.002,0.07 -0.002,0.14 -0.002,0.21c0,7.95 4.597,14.58 10.698,16.09c-1.119,0.37 -2.297,0.57 -3.513,0.57c-0.861,0 -1.696,-0.1 -2.51,-0.29c1.698,6.51 6.622,11.26 12.457,11.39c-4.564,4.4 -10.313,7.03 -16.562,7.03c-1.075,0 -2.137,-0.08 -3.181,-0.23c5.903,4.66 12.912,7.37 20.442,7.37c24.53,0 37.942,-25 37.942,-46.69c0,-0.71 -0.012,-1.42 -0.037,-2.12c2.605,-2.31 4.866,-5.2 6.653,-8.5z" fill="white" xmlns="http://www.w3.org/2000/svg"/></svg>