<svg viewBox="0 0 52.621 49.76" x="0" y="0" fill="none" xmlns="http://www.w3.org/2000/svg"><path id="Vector_4" d="M11.334,5.92c-0.001,1.44 -0.572,2.82 -1.589,3.83c-1.016,1.02 -2.394,1.59 -3.831,1.59c-1.436,-0.01 -2.814,-0.58 -3.829,-1.59c-1.015,-1.02 -1.585,-2.4 -1.585,-3.83c0.001,-1.44 0.573,-2.82 1.589,-3.83c1.016,-1.02 2.394,-1.59 3.831,-1.59c1.436,0 2.814,0.57 3.829,1.59c1.016,1.02 1.586,2.4 1.585,3.83zM11.496,15.35h-10.833v33.91h10.833zM28.613,15.35h-10.779v33.91h10.671v-17.8c0,-9.91 12.918,-10.83 12.918,0v17.8h10.698v-21.48c0,-16.71 -19.121,-16.09 -23.616,-7.88z" fill="white" xmlns="http://www.w3.org/2000/svg"/></svg>