<svg viewBox="0 0 66 66" x="0" y="0" fill="none" xmlns="http://www.w3.org/2000/svg"><path id="Vector_3" d="M19.35,0.5h27.3c10.4,0 18.85,8.45 18.85,18.85v27.3c0,5 -1.986,9.79 -5.521,13.33c-3.535,3.53 -8.33,5.52 -13.329,5.52h-27.3c-10.4,0 -18.85,-8.45 -18.85,-18.85v-27.3c0,-5 1.986,-9.79 5.521,-13.33c3.535,-3.53 8.33,-5.52 13.329,-5.52zM18.7,7c-3.103,0 -6.079,1.23 -8.273,3.43c-2.194,2.19 -3.427,5.17 -3.427,8.27v28.6c0,6.47 5.233,11.7 11.7,11.7h28.6c3.103,0 6.079,-1.23 8.273,-3.43c2.194,-2.19 3.427,-5.17 3.427,-8.27v-28.6c0,-6.47 -5.233,-11.7 -11.7,-11.7zM50.062,11.88c1.078,0 2.111,0.42 2.873,1.18c0.762,0.77 1.19,1.8 1.19,2.88c0,1.07 -0.428,2.11 -1.19,2.87c-0.762,0.76 -1.795,1.19 -2.873,1.19c-1.077,0 -2.11,-0.43 -2.872,-1.19c-0.762,-0.76 -1.19,-1.8 -1.19,-2.87c0,-1.08 0.428,-2.11 1.19,-2.88c0.762,-0.76 1.795,-1.18 2.872,-1.18zM33,16.75c4.31,0 8.443,1.71 11.49,4.76c3.048,3.05 4.76,7.18 4.76,11.49c0,4.31 -1.712,8.44 -4.76,11.49c-3.047,3.05 -7.18,4.76 -11.49,4.76c-4.31,0 -8.443,-1.71 -11.49,-4.76c-3.048,-3.05 -4.76,-7.18 -4.76,-11.49c0,-4.31 1.712,-8.44 4.76,-11.49c3.047,-3.05 7.18,-4.76 11.49,-4.76zM33,23.25c-2.586,0 -5.066,1.03 -6.894,2.86c-1.829,1.82 -2.856,4.3 -2.856,6.89c0,2.59 1.027,5.07 2.856,6.89c1.828,1.83 4.308,2.86 6.894,2.86c2.586,0 5.066,-1.03 6.894,-2.86c1.829,-1.82 2.856,-4.3 2.856,-6.89c0,-2.59 -1.027,-5.07 -2.856,-6.89c-1.828,-1.83 -4.308,-2.86 -6.894,-2.86z" fill="white" xmlns="http://www.w3.org/2000/svg"/></svg>