<svg viewBox="0 0 38.5 38.5" x="0" y="0" fill="none" xmlns="http://www.w3.org/2000/svg"><path id="Vector_2" d="M8.042,16.73c3,5.89 7.833,10.71 13.729,13.73l4.583,-4.58c0.563,-0.57 1.396,-0.76 2.125,-0.51c2.333,0.78 4.854,1.19 7.438,1.19c1.145,0 2.083,0.94 2.083,2.09v7.27c0,1.14 -0.938,2.08 -2.083,2.08c-19.563,0 -35.417,-15.85 -35.417,-35.42c0,-1.14 0.937,-2.08 2.083,-2.08h7.292c1.146,0 2.083,0.94 2.083,2.08c0,2.61 0.417,5.11 1.188,7.44c0.229,0.73 0.062,1.54 -0.521,2.13z" fill="white" xmlns="http://www.w3.org/2000/svg"/></svg>