<svg viewBox="0 0 42.66601463417538 34.340000000000146" x="0" y="0" fill="none" xmlns="http://www.w3.org/2000/svg"><path id="Vector" d="M4.66601,33.84c-1.146,0 -2.127,-0.41 -2.943,-1.23c-0.817,-0.82 -1.225,-1.8 -1.223,-2.94v-25c0,-1.15 0.408,-2.13 1.225,-2.94c0.816,-0.82 1.797,-1.23 2.941,-1.23h33.334c1.145,0 2.127,0.41 2.943,1.23c0.817,0.81 1.225,1.8 1.223,2.94v25c0,1.15 -0.408,2.13 -1.225,2.94c-0.816,0.82 -1.797,1.23 -2.941,1.23zM21.33301,19.25l16.667,-10.41v-4.17l-16.667,10.42l-16.667,-10.42v4.17z" fill="white" xmlns="http://www.w3.org/2000/svg"/></svg>